<svg width="657.9px" height="122px" xmlns="http://www.w3.org/2000/svg" viewBox="-78.94687499999998 14 657.89375 122" style="background: rgba(0, 0, 0, 0)" preserveAspectRatio="xMidYMid"><defs><filter id="editing-extrusion" x="-100%" y="-100%" width="300%" height="300%"><feFlood result="color1" flood-color="#444"></feFlood><feConvolveMatrix order="8,8" divisor="1" kernelMatrix="1 0 0 0 0 0 0 0 0 1 0 0 0 0 0 0 0 0 1 0 0 0 0 0 0 0 0 1 0 0 0 0 0 0 0 0 1 0 0 0 0 0 0 0 0 1 0 0 0 0 0 0 0 0 1 0 0 0 0 0 0 0 0 1" in="SourceAlpha" result="extrude"></feConvolveMatrix><feComposite in="color1" in2="extrude" result="comp-extrude" operator="in"></feComposite><feOffset dx="4" dy="4" in="comp-extrude" result="offset-extrude"></feOffset><feMerge><feMergeNode in="offset-extrude"></feMergeNode><feMergeNode in="SourceGraphic"></feMergeNode></feMerge></filter></defs><g filter="url(#editing-extrusion)"><g transform="matrix(1.3,0,0,1.4,-56.3,154.6)"><path d="M 8.1 -39.8 L -5.9 -39.8 L 2.2 -82 L 16.3 -82 L 8.1 -39.8 Z M 63.8 -38.5 L 63.8 -38.5 L 63.8 -38.5 Q 56.1 -38.5 56.1 -44.5 L 56.1 -44.5 L 56.1 -44.5 Q 56.1 -47.1 57.2 -52.2 L 57.2 -52.2 L 57.2 -52.2 Q 58.3 -57.3 58.7 -59.3 L 58.7 -59.3 L 58.7 -59.3 Q 59.6 -64 59.6 -65.5 L 59.6 -65.5 L 59.6 -65.5 Q 59.6 -68.7 57.2 -68.7 L 57.2 -68.7 L 57.2 -68.7 Q 55.6 -68.7 54 -66.5 L 54 -66.5 L 54 -66.5 Q 52.5 -64.3 51.8 -59.9 L 51.8 -59.9 L 47.8 -39.8 L 35.3 -38.5 L 38.8 -55.9 L 38.8 -55.9 Q 39.4 -58.8 39.9 -62 L 39.9 -62 L 39.9 -62 Q 40.4 -65.3 40.4 -65.8 L 40.4 -65.8 L 40.4 -65.8 Q 40.4 -68.7 38.2 -68.7 L 38.2 -68.7 L 38.2 -68.7 Q 36.7 -68.7 35.1 -66.6 L 35.1 -66.6 L 35.1 -66.6 Q 33.5 -64.4 32.6 -59.9 L 32.6 -59.9 L 28.7 -39.8 L 16.1 -38.5 L 22.9 -72.4 L 33.3 -73.7 L 32.2 -67.2 L 32.2 -67.2 Q 33.9 -70.7 36.9 -72.2 L 36.9 -72.2 L 36.9 -72.2 Q 40 -73.7 44.8 -73.7 L 44.8 -73.7 L 44.8 -73.7 Q 47.6 -73.7 49.4 -72.3 L 49.4 -72.3 L 49.4 -72.3 Q 51.1 -71 51.7 -68.8 L 51.7 -68.8 L 51.7 -68.8 Q 52.8 -71.1 55.6 -72.4 L 55.6 -72.4 L 55.6 -72.4 Q 58.4 -73.7 61.8 -73.7 L 61.8 -73.7 L 61.8 -73.7 Q 65.2 -73.7 66.9 -72.9 L 66.9 -72.9 L 66.9 -72.9 Q 68.6 -72.2 69.6 -71 L 69.6 -71 L 69.6 -71 Q 71.4 -68.7 71.4 -64.7 L 71.4 -64.7 L 71.4 -64.7 Q 71.4 -60.6 69.6 -52.2 L 69.6 -52.2 L 69.6 -52.2 Q 68.7 -48.1 68.7 -46.6 L 68.7 -46.6 L 68.7 -46.6 Q 68.7 -45.1 69.6 -44.2 L 69.6 -44.2 L 69.6 -44.2 Q 70.5 -43.3 71.8 -43.2 L 71.8 -43.2 L 71.8 -43.2 Q 71.1 -41 68.9 -39.8 L 68.9 -39.8 L 68.9 -39.8 Q 66.7 -38.5 63.8 -38.5 Z M 79.5 -41.7 L 79.5 -41.7 L 79.5 -41.7 Q 78 -43.3 77.3 -46 L 77.3 -46 L 77.3 -46 Q 76.6 -48.6 76.6 -52.9 L 76.6 -52.9 L 76.6 -52.9 Q 76.6 -57.2 78.1 -61.1 L 78.1 -61.1 L 78.1 -61.1 Q 79.6 -65 82.2 -67.8 L 82.2 -67.8 L 82.2 -67.8 Q 87.8 -73.7 96.8 -73.7 L 96.8 -73.7 L 96.8 -73.7 Q 100.1 -73.7 102.5 -72.6 L 102.5 -72.6 L 113.4 -73.7 L 108.7 -48.7 L 108.7 -48.7 Q 108.5 -47.9 108.5 -46.5 L 108.5 -46.5 L 108.5 -46.5 Q 108.5 -45.1 109.4 -44.2 L 109.4 -44.2 L 109.4 -44.2 Q 110.2 -43.3 111.5 -43.2 L 111.5 -43.2 L 111.5 -43.2 Q 110.9 -41 108.5 -39.8 L 108.5 -39.8 L 108.5 -39.8 Q 106.2 -38.5 103.6 -38.5 L 103.6 -38.5 L 103.6 -38.5 Q 100.9 -38.5 99.2 -39.5 L 99.2 -39.5 L 99.2 -39.5 Q 97.4 -40.5 96.9 -42.1 L 96.9 -42.1 L 96.9 -42.1 Q 95.9 -40.5 93.7 -39.5 L 93.7 -39.5 L 93.7 -39.5 Q 91.5 -38.5 88.6 -38.5 L 88.6 -38.5 L 88.6 -38.5 Q 85.7 -38.5 83.3 -39.2 L 83.3 -39.2 L 83.3 -39.2 Q 81 -40 79.5 -41.7 Z M 93 -67.7 L 93 -67.7 L 93 -67.7 Q 92.2 -66.5 91.6 -64.6 L 91.6 -64.6 L 91.6 -64.6 Q 91 -62.6 89.9 -57.4 L 89.9 -57.4 L 89.9 -57.4 Q 88.8 -52.2 88.8 -48.5 L 88.8 -48.5 L 88.8 -48.5 Q 88.8 -44.7 89.4 -43.7 L 89.4 -43.7 L 89.4 -43.7 Q 90 -42.6 91 -42.6 L 91 -42.6 L 91 -42.6 Q 93.1 -42.6 94.6 -44.5 L 94.6 -44.5 L 94.6 -44.5 Q 96.1 -46.5 96.6 -49.9 L 96.6 -49.9 L 100 -68.7 L 100 -68.7 Q 98.7 -69.8 97.1 -69.8 L 97.1 -69.8 L 97.1 -69.8 Q 95.6 -69.8 94.6 -69.3 L 94.6 -69.3 L 94.6 -69.3 Q 93.7 -68.8 93 -67.7 Z M 121.2 -66.5 L 121.2 -66.5 L 121.2 -66.5 Q 123.3 -69.6 126.6 -71.6 L 126.6 -71.6 L 126.6 -71.6 Q 129.9 -73.7 134 -73.7 L 134 -73.7 L 134 -73.7 Q 138 -73.7 139.9 -72.4 L 139.9 -72.4 L 152.5 -73.7 L 148.1 -49.1 L 148.1 -49.1 Q 145.9 -36.6 141.1 -31.6 L 141.1 -31.6 L 141.1 -31.6 Q 136.6 -27 127.8 -27 L 127.8 -27 L 127.8 -27 Q 121 -27 117.2 -29.1 L 117.2 -29.1 L 117.2 -29.1 Q 113.4 -31.2 113.4 -34.7 L 113.4 -34.7 L 113.4 -34.7 Q 113.4 -37.3 115.3 -38.8 L 115.3 -38.8 L 115.3 -38.8 Q 117.3 -40.3 120.4 -40.3 L 120.4 -40.3 L 120.4 -40.3 Q 123.1 -40.3 125.1 -39.1 L 125.1 -39.1 L 125.1 -39.1 Q 126.3 -38.5 126.9 -37.6 L 126.9 -37.6 L 126.9 -37.6 Q 125.4 -36.3 125.4 -34.2 L 125.4 -34.2 L 125.4 -34.2 Q 125.4 -31.4 128 -31.4 L 128 -31.4 L 128 -31.4 Q 132.3 -31.4 134.7 -41.5 L 134.7 -41.5 L 134.7 -41.5 Q 135.4 -44.3 136 -47.1 L 136 -47.1 L 136 -47.1 Q 133.1 -43.5 126.6 -43.5 L 126.6 -43.5 L 126.6 -43.5 Q 122.1 -43.5 119.4 -45.7 L 119.4 -45.7 L 119.4 -45.7 Q 116.8 -47.9 116.8 -53 L 116.8 -53 L 116.8 -53 Q 116.8 -56.2 117.9 -59.8 L 117.9 -59.8 L 117.9 -59.8 Q 119 -63.4 121.2 -66.5 Z M 129.5 -52.8 L 129.5 -52.8 L 129.5 -52.8 Q 129.5 -48.5 131.7 -48.5 L 131.7 -48.5 L 131.7 -48.5 Q 133.3 -48.5 134.7 -50.1 L 134.7 -50.1 L 134.7 -50.1 Q 135.9 -51.5 136.3 -53.5 L 136.3 -53.5 L 139.6 -69.9 L 139.6 -69.9 Q 139.3 -70 139 -70.1 L 139 -70.1 L 139 -70.1 Q 138.3 -70.3 137.5 -70.3 L 137.5 -70.3 L 137.5 -70.3 Q 133.6 -70.3 131.3 -63.9 L 131.3 -63.9 L 131.3 -63.9 Q 129.5 -59 129.5 -52.8 Z M 180.9 -50.6 L 180.9 -50.6 L 180.9 -50.6 Q 182.5 -49.5 182.5 -47.1 L 182.5 -47.1 L 182.5 -47.1 Q 182.5 -44.7 181.3 -43.1 L 181.3 -43.1 L 181.3 -43.1 Q 180 -41.6 178.1 -40.6 L 178.1 -40.6 L 178.1 -40.6 Q 174 -38.5 169.5 -38.5 L 169.5 -38.5 L 169.5 -38.5 Q 165.1 -38.5 162.5 -39.4 L 162.5 -39.4 L 162.5 -39.4 Q 159.9 -40.4 158.2 -42.2 L 158.2 -42.2 L 158.2 -42.2 Q 154.8 -45.6 154.8 -51.8 L 154.8 -51.8 L 154.8 -51.8 Q 154.8 -61.5 160.1 -67.3 L 160.1 -67.3 L 160.1 -67.3 Q 165.7 -73.7 175.5 -73.7 L 175.5 -73.7 L 175.5 -73.7 Q 181.6 -73.7 184.6 -71.1 L 184.6 -71.1 L 184.6 -71.1 Q 186.8 -69.2 186.8 -66.1 L 186.8 -66.1 L 186.8 -66.1 Q 186.8 -54.8 167.4 -54.8 L 167.4 -54.8 L 167.4 -54.8 Q 167.1 -53.1 167.1 -51.7 L 167.1 -51.7 L 167.1 -51.7 Q 167.1 -48.8 168.4 -47.7 L 168.4 -47.7 L 168.4 -47.7 Q 169.7 -46.5 172.2 -46.5 L 172.2 -46.5 L 172.2 -46.5 Q 174.6 -46.5 177.2 -47.7 L 177.2 -47.7 L 177.2 -47.7 Q 179.8 -48.8 180.9 -50.6 Z M 167.8 -57.5 L 167.8 -57.5 L 167.8 -57.5 Q 172.4 -57.5 175 -60.4 L 175 -60.4 L 175 -60.4 Q 177.6 -63.1 177.6 -67.3 L 177.6 -67.3 L 177.6 -67.3 Q 177.6 -68.8 177.1 -69.6 L 177.1 -69.6 L 177.1 -69.6 Q 176.5 -70.4 175.4 -70.4 L 175.4 -70.4 L 175.4 -70.4 Q 174.3 -70.4 173.4 -70 L 173.4 -70 L 173.4 -70 Q 172.5 -69.6 171.5 -68.2 L 171.5 -68.2 L 171.5 -68.2 Q 169.2 -65 167.8 -57.5 Z M 208.1 -62.2 L 208.1 -62.2 L 208.1 -62.2 Q 209 -64.6 209 -66.6 L 209 -66.6 L 209 -66.6 Q 209 -70.4 206 -70.4 L 206 -70.4 L 206 -70.4 Q 204.4 -70.4 203 -69 L 203 -69 L 203 -69 Q 201.7 -67.5 201.7 -65.7 L 201.7 -65.7 L 201.7 -65.7 Q 201.7 -64.5 202.8 -63.4 L 202.8 -63.4 L 202.8 -63.4 Q 204.2 -62 208 -59.7 L 208 -59.7 L 208 -59.7 Q 211.8 -57.4 213.2 -55.5 L 213.2 -55.5 L 213.2 -55.5 Q 214.7 -53.6 214.7 -51.1 L 214.7 -51.1 L 214.7 -51.1 Q 214.7 -48.5 213.4 -46.1 L 213.4 -46.1 L 213.4 -46.1 Q 212.2 -43.7 209.9 -42.1 L 209.9 -42.1 L 209.9 -42.1 Q 205.1 -38.5 197.4 -38.5 L 197.4 -38.5 L 197.4 -38.5 Q 193.3 -38.5 190.1 -40.7 L 190.1 -40.7 L 190.1 -40.7 Q 186.9 -42.8 186.9 -45.3 L 186.9 -45.3 L 186.9 -45.3 Q 186.9 -47.8 188.7 -49.2 L 188.7 -49.2 L 188.7 -49.2 Q 190.5 -50.7 193.2 -50.7 L 193.2 -50.7 L 193.2 -50.7 Q 195.9 -50.7 197.6 -49.7 L 197.6 -49.7 L 197.6 -49.7 Q 196.7 -47.6 196.7 -46.2 L 196.7 -46.2 L 196.7 -46.2 Q 196.7 -41.9 200.3 -41.9 L 200.3 -41.9 L 200.3 -41.9 Q 201.9 -41.9 202.9 -42.9 L 202.9 -42.9 L 202.9 -42.9 Q 203.9 -43.9 203.9 -45.5 L 203.9 -45.5 L 203.9 -45.5 Q 203.9 -48.8 198.4 -52.2 L 198.4 -52.2 L 198.4 -52.2 Q 193.9 -55.2 192.9 -56.3 L 192.9 -56.3 L 192.9 -56.3 Q 191.2 -58.4 191.2 -60.9 L 191.2 -60.9 L 191.2 -60.9 Q 191.2 -63.5 192.4 -65.9 L 192.4 -65.9 L 192.4 -65.9 Q 193.6 -68.4 195.8 -70.1 L 195.8 -70.1 L 195.8 -70.1 Q 200.5 -73.7 208.6 -73.7 L 208.6 -73.7 L 208.6 -73.7 Q 212.8 -73.7 215.3 -72 L 215.3 -72 L 215.3 -72 Q 217.7 -70.3 217.7 -67.5 L 217.7 -67.5 L 217.7 -67.5 Q 217.7 -64.7 216 -63.1 L 216 -63.1 L 216 -63.1 Q 214.3 -61.5 211.3 -61.5 L 211.3 -61.5 L 211.3 -61.5 Q 209.2 -61.5 208.1 -62.2 Z M 259.2 -60.4 L 272.1 -61.5 L 272.1 -61.5 Q 267.5 -51.4 267.5 -39.7 L 267.5 -39.7 L 267.5 -39.7 Q 265.8 -38.5 263.3 -38.5 L 263.3 -38.5 L 263.3 -38.5 Q 260.7 -38.5 259.1 -39.7 L 259.1 -39.7 L 259.1 -39.7 Q 257.5 -40.8 257.2 -42.1 L 257.2 -42.1 L 257.2 -42.1 Q 255.6 -40.4 253 -39.4 L 253 -39.4 L 253 -39.4 Q 250.4 -38.5 247.7 -38.5 L 247.7 -38.5 L 247.7 -38.5 Q 244.9 -38.5 242.5 -39.4 L 242.5 -39.4 L 242.5 -39.4 Q 240.1 -40.3 238.3 -42.3 L 238.3 -42.3 L 238.3 -42.3 Q 234.2 -46.6 234.2 -54.9 L 234.2 -54.9 L 234.2 -54.9 Q 234.2 -67.7 241 -75.3 L 241 -75.3 L 241 -75.3 Q 248.1 -83.3 260.6 -83.3 L 260.6 -83.3 L 260.6 -83.3 Q 269.2 -83.3 272.3 -78.8 L 272.3 -78.8 L 272.3 -78.8 Q 273.2 -77.4 273.2 -75.7 L 273.2 -75.7 L 273.2 -75.7 Q 273.2 -74 272.5 -72.6 L 272.5 -72.6 L 272.5 -72.6 Q 271.8 -71.1 270.6 -70 L 270.6 -70 L 270.6 -70 Q 267.8 -67.4 264.5 -67.4 L 264.5 -67.4 L 264.5 -67.4 Q 263.1 -67.4 261.8 -67.9 L 261.8 -67.9 L 261.8 -67.9 Q 262.1 -69.8 262.1 -72 L 262.1 -72 L 262.1 -72 Q 262.1 -74.3 261.9 -75.3 L 261.9 -75.3 L 261.9 -75.3 Q 261.8 -76.3 261.4 -77.1 L 261.4 -77.1 L 261.4 -77.1 Q 260.6 -78.9 258.7 -78.9 L 258.7 -78.9 L 258.7 -78.9 Q 256.9 -78.9 254.9 -76.9 L 254.9 -76.9 L 254.9 -76.9 Q 252.9 -75 251.3 -71.8 L 251.3 -71.8 L 251.3 -71.8 Q 247.8 -64.6 247.8 -55.9 L 247.8 -55.9 L 247.8 -55.9 Q 247.8 -52 249.3 -49.2 L 249.3 -49.2 L 249.3 -49.2 Q 251 -46.1 253.9 -46.1 L 253.9 -46.1 L 253.9 -46.1 Q 254.9 -46.1 255.8 -46.6 L 255.8 -46.6 L 255.8 -46.6 Q 256.8 -47.1 257.2 -47.5 L 257.2 -47.5 L 259.2 -60.4 Z M 278.1 -41.7 L 278.1 -41.7 L 278.1 -41.7 Q 276.6 -43.3 275.9 -46 L 275.9 -46 L 275.9 -46 Q 275.2 -48.6 275.2 -52.9 L 275.2 -52.9 L 275.2 -52.9 Q 275.2 -57.2 276.7 -61.1 L 276.7 -61.1 L 276.7 -61.1 Q 278.2 -65 280.8 -67.8 L 280.8 -67.8 L 280.8 -67.8 Q 286.3 -73.7 295.4 -73.7 L 295.4 -73.7 L 295.4 -73.7 Q 298.7 -73.7 301.1 -72.6 L 301.1 -72.6 L 312 -73.7 L 307.3 -48.7 L 307.3 -48.7 Q 307.1 -47.9 307.1 -46.5 L 307.1 -46.5 L 307.1 -46.5 Q 307.1 -45.1 307.9 -44.2 L 307.9 -44.2 L 307.9 -44.2 Q 308.8 -43.3 310.1 -43.2 L 310.1 -43.2 L 310.1 -43.2 Q 309.4 -41 307.1 -39.8 L 307.1 -39.8 L 307.1 -39.8 Q 304.8 -38.5 302.2 -38.5 L 302.2 -38.5 L 302.2 -38.5 Q 299.5 -38.5 297.8 -39.5 L 297.8 -39.5 L 297.8 -39.5 Q 296 -40.5 295.5 -42.1 L 295.5 -42.1 L 295.5 -42.1 Q 294.5 -40.5 292.3 -39.5 L 292.3 -39.5 L 292.3 -39.5 Q 290.1 -38.5 287.2 -38.5 L 287.2 -38.5 L 287.2 -38.5 Q 284.3 -38.5 281.9 -39.2 L 281.9 -39.2 L 281.9 -39.2 Q 279.6 -40 278.1 -41.7 Z M 291.6 -67.7 L 291.6 -67.7 L 291.6 -67.7 Q 290.8 -66.5 290.2 -64.6 L 290.2 -64.6 L 290.2 -64.6 Q 289.5 -62.6 288.5 -57.4 L 288.5 -57.4 L 288.5 -57.4 Q 287.4 -52.2 287.4 -48.5 L 287.4 -48.5 L 287.4 -48.5 Q 287.4 -44.7 288 -43.7 L 288 -43.7 L 288 -43.7 Q 288.6 -42.6 289.6 -42.6 L 289.6 -42.6 L 289.6 -42.6 Q 291.7 -42.6 293.2 -44.5 L 293.2 -44.5 L 293.2 -44.5 Q 294.7 -46.5 295.2 -49.9 L 295.2 -49.9 L 298.6 -68.7 L 298.6 -68.7 Q 297.3 -69.8 295.7 -69.8 L 295.7 -69.8 L 295.7 -69.8 Q 294.2 -69.8 293.2 -69.3 L 293.2 -69.3 L 293.2 -69.3 Q 292.3 -68.8 291.6 -67.7 Z M 330.8 -43.3 L 330.8 -43.3 L 330.8 -43.3 Q 328.8 -38.5 322.4 -38.5 L 322.4 -38.5 L 322.4 -38.5 Q 319.2 -38.5 317.2 -40.7 L 317.2 -40.7 L 317.2 -40.7 Q 315.5 -42.6 315.5 -44.7 L 315.5 -44.7 L 315.5 -44.7 Q 315.5 -49.5 317.8 -60 L 317.8 -60 L 322.4 -84.6 L 335.4 -85.8 L 329.2 -53.5 L 329.2 -53.5 Q 328.1 -48.7 328.1 -47.1 L 328.1 -47.1 L 328.1 -47.1 Q 328.1 -43.4 330.8 -43.3 Z M 351.5 -43.3 L 351.5 -43.3 L 351.5 -43.3 Q 349.5 -38.5 343.2 -38.5 L 343.2 -38.5 L 343.2 -38.5 Q 340 -38.5 337.9 -40.7 L 337.9 -40.7 L 337.9 -40.7 Q 336.3 -42.6 336.3 -44.7 L 336.3 -44.7 L 336.3 -44.7 Q 336.3 -49.5 338.5 -60 L 338.5 -60 L 343.2 -84.6 L 356.2 -85.8 L 350 -53.5 L 350 -53.5 Q 348.9 -48.7 348.9 -47.1 L 348.9 -47.1 L 348.9 -47.1 Q 348.9 -43.4 351.5 -43.3 Z M 382.9 -50.6 L 382.9 -50.6 L 382.9 -50.6 Q 384.5 -49.5 384.5 -47.1 L 384.5 -47.1 L 384.5 -47.1 Q 384.5 -44.7 383.2 -43.1 L 383.2 -43.1 L 383.2 -43.1 Q 382 -41.6 380 -40.6 L 380 -40.6 L 380 -40.6 Q 375.9 -38.5 371.5 -38.5 L 371.5 -38.5 L 371.5 -38.5 Q 367.1 -38.5 364.5 -39.4 L 364.5 -39.4 L 364.5 -39.4 Q 361.9 -40.4 360.2 -42.2 L 360.2 -42.2 L 360.2 -42.2 Q 356.8 -45.6 356.8 -51.8 L 356.8 -51.8 L 356.8 -51.8 Q 356.8 -61.5 362.1 -67.3 L 362.1 -67.3 L 362.1 -67.3 Q 367.7 -73.7 377.5 -73.7 L 377.5 -73.7 L 377.5 -73.7 Q 383.6 -73.7 386.6 -71.1 L 386.6 -71.1 L 386.6 -71.1 Q 388.8 -69.2 388.8 -66.1 L 388.8 -66.1 L 388.8 -66.1 Q 388.8 -54.8 369.4 -54.8 L 369.4 -54.8 L 369.4 -54.8 Q 369.1 -53.1 369.1 -51.7 L 369.1 -51.7 L 369.1 -51.7 Q 369.1 -48.8 370.4 -47.7 L 370.4 -47.7 L 370.4 -47.7 Q 371.7 -46.5 374.2 -46.5 L 374.2 -46.5 L 374.2 -46.5 Q 376.6 -46.5 379.2 -47.7 L 379.2 -47.7 L 379.2 -47.7 Q 381.8 -48.8 382.9 -50.6 Z M 369.8 -57.5 L 369.8 -57.5 L 369.8 -57.5 Q 374.3 -57.5 377 -60.4 L 377 -60.4 L 377 -60.4 Q 379.6 -63.1 379.6 -67.3 L 379.6 -67.3 L 379.6 -67.3 Q 379.6 -68.8 379 -69.6 L 379 -69.6 L 379 -69.6 Q 378.5 -70.4 377.4 -70.4 L 377.4 -70.4 L 377.4 -70.4 Q 376.3 -70.4 375.4 -70 L 375.4 -70 L 375.4 -70 Q 374.5 -69.6 373.5 -68.2 L 373.5 -68.2 L 373.5 -68.2 Q 371.1 -65 369.8 -57.5 Z M 411 -57.7 L 411 -57.7 L 411 -57.7 Q 413.3 -61.8 413.3 -66 L 413.3 -66 L 413.3 -66 Q 413.3 -68.7 411.3 -68.7 L 411.3 -68.7 L 411.3 -68.7 Q 409.8 -68.7 408.2 -66.1 L 408.2 -66.1 L 408.2 -66.1 Q 406.5 -63.5 406 -60.1 L 406 -60.1 L 402.7 -39.8 L 389.4 -38.5 L 396 -72.4 L 406.5 -73.7 L 405.4 -67.2 L 405.4 -67.2 Q 408.5 -73.7 415.6 -73.7 L 415.6 -73.7 L 415.6 -73.7 Q 419.3 -73.7 421.3 -71.8 L 421.3 -71.8 L 421.3 -71.8 Q 423.3 -69.8 423.3 -65.9 L 423.3 -65.9 L 423.3 -65.9 Q 423.3 -62 420.7 -59.5 L 420.7 -59.5 L 420.7 -59.5 Q 418.1 -57 413.7 -57 L 413.7 -57 L 413.7 -57 Q 411.8 -57 411 -57.7 Z M 444.7 -47 L 444.7 -47 L 444.7 -47 Q 441.4 -43.5 435.3 -43.5 L 435.3 -43.5 L 435.3 -43.5 Q 427.7 -43.5 426.1 -49.1 L 426.1 -49.1 L 426.1 -49.1 Q 425.5 -50.8 425.5 -52.6 L 425.5 -52.6 L 425.5 -52.6 Q 425.5 -54.5 425.9 -56.4 L 425.9 -56.4 L 428.9 -72.4 L 441.9 -73.7 L 438.4 -55.1 L 438.4 -55.1 Q 438.3 -54.2 438.1 -53.3 L 438.1 -53.3 L 438.1 -53.3 Q 437.9 -52.4 437.9 -51.5 L 437.9 -51.5 L 437.9 -51.5 Q 437.9 -50.6 438.2 -50 L 438.2 -50 L 438.2 -50 Q 438.5 -49.4 439 -49 L 439 -49 L 439 -49 Q 439.8 -48.5 441.1 -48.5 L 441.1 -48.5 L 441.1 -48.5 Q 442.5 -48.5 443.7 -50.1 L 443.7 -50.1 L 443.7 -50.1 Q 444.9 -51.8 445.4 -54.7 L 445.4 -54.7 L 449 -72.4 L 461.6 -73.7 L 456.8 -48.5 L 456.8 -48.5 Q 454.4 -36.2 449.5 -31.4 L 449.5 -31.4 L 449.5 -31.4 Q 447 -28.9 443.8 -27.9 L 443.8 -27.9 L 443.8 -27.9 Q 440.6 -26.9 436.4 -26.9 L 436.4 -26.9 L 436.4 -26.9 Q 429.7 -26.9 425.9 -29 L 425.9 -29 L 425.9 -29 Q 422 -31.1 422 -34.6 L 422 -34.6 L 422 -34.6 Q 422 -37.3 424 -38.8 L 424 -38.8 L 424 -38.8 Q 426 -40.3 429.1 -40.3 L 429.1 -40.3 L 429.1 -40.3 Q 431.8 -40.3 433.8 -39.1 L 433.8 -39.1 L 433.8 -39.1 Q 435 -38.4 435.6 -37.5 L 435.6 -37.5 L 435.6 -37.5 Q 434.1 -36.2 434.1 -34.1 L 434.1 -34.1 L 434.1 -34.1 Q 434.1 -31.3 436.7 -31.3 L 436.7 -31.3 L 436.7 -31.3 Q 440.9 -31.3 443.3 -41 L 443.3 -41 L 443.3 -41 Q 444 -43.9 444.7 -47 Z" fill="#cccccc"></path></g></g><style>text {
  font-size: 64px;
  font-family: Arial Black;
  dominant-baseline: central;
  text-anchor: middle;
}</style></svg>